<svg width="16" height="16" viewBox="0 0 16 16" fill="none" xmlns="http://www.w3.org/2000/svg">
<path d="M15.8045 0.195405C15.6795 0.0704239 15.51 0.000213623 15.3332 0.000213623C15.1564 0.000213623 14.9869 0.0704239 14.8619 0.195405L7.99986 7.0574L1.13786 0.195405C1.01284 0.0704239 0.8433 0.000213623 0.666524 0.000213623C0.489748 0.000213623 0.320209 0.0704239 0.195191 0.195405C0.0702103 0.320423 0 0.489962 0 0.666738C0 0.843514 0.0702103 1.01305 0.195191 1.13807L7.05719 8.00007L0.195191 14.8621C0.0702103 14.9871 0 15.1566 0 15.3334C0 15.5102 0.0702103 15.6797 0.195191 15.8047C0.320209 15.9297 0.489748 15.9999 0.666524 15.9999C0.8433 15.9999 1.01284 15.9297 1.13786 15.8047L7.99986 8.94274L14.8619 15.8047C14.9869 15.9297 15.1564 15.9999 15.3332 15.9999C15.51 15.9999 15.6795 15.9297 15.8045 15.8047C15.9295 15.6797 15.9997 15.5102 15.9997 15.3334C15.9997 15.1566 15.9295 14.9871 15.8045 14.8621L8.94252 8.00007L15.8045 1.13807C15.9295 1.01305 15.9997 0.843514 15.9997 0.666738C15.9997 0.489962 15.9295 0.320423 15.8045 0.195405Z" fill="#606C66"/>
</svg>
